# xmcd
#
# Track frame offsets: 
#        150
#        22188
#        43031
#        56347
#        75320
#        92239
#        110688
#        130153
#        148277
#        182769
#        207887
#        231954
#
# Disc length: 3330 seconds
#
# Revision: 0
# Processed by: cddbd v1.5.2PL0 Copyright (c) Steve Scherf et al.
# Submitted via: ExactAudioCopy v1.2
#
DISCID=a80d000c
DTITLE=Peter Karp - The American Blues
DYEAR=2018
DGENRE=Blues
TTITLE0=Treat Me Right
TTITLE1=Alabama Town
TTITLE2=Train O'Mine
TTITLE3=The Turning Point
TTITLE4=The Nieztsche Lounge
TTITLE5=Nobody Really Knows
TTITLE6=Rolling on a Log
TTITLE7=That's How I Like It
TTITLE8=Her and My Blues
TTITLE9=I'm Not Giving up
TTITLE10=The Arson's Match (Live)
TTITLE11=Y'All Be Lookin' (Live)
EXTD=
EXTT0=
EXTT1=
EXTT2=
EXTT3=
EXTT4=
EXTT5=
EXTT6=
EXTT7=
EXTT8=
EXTT9=
EXTT10=
EXTT11=
PLAYORDER=
